<svg xmlns="http://www.w3.org/2000/svg" version="1.1" xmlns:xlink="http://www.w3.org/1999/xlink" xmlns:svgjs="http://svgjs.dev/svgjs" width="2000" height="1664" viewBox="0 0 2000 1664"><g transform="matrix(1,0,0,1,-0.23730035179721654,-2.6838709677419956)"><svg viewBox="0 0 298 248" data-background-color="#ffffff" preserveAspectRatio="xMidYMid meet" height="1664" width="2000" xmlns="http://www.w3.org/2000/svg" xmlns:xlink="http://www.w3.org/1999/xlink"><g id="tight-bounds" transform="matrix(1,0,0,1,0.03535775241778083,0.4000000000000057)"><svg viewBox="0 0 297.92928449516444 247.2" height="247.2" width="297.92928449516444"><g><svg viewBox="0 0 395.52 328.1736609600957" height="247.2" width="297.92928449516444"><g transform="matrix(1,0,0,1,0,202.82448814765797)"><svg viewBox="0 0 395.52 125.34917281243771" height="125.34917281243771" width="395.52"><g id="textblocktransform"><svg viewBox="0 0 395.52 125.34917281243771" height="125.34917281243771" width="395.52" id="textblock"><g><svg viewBox="0 0 395.52 125.34917281243771" height="125.34917281243771" width="395.52"><g transform="matrix(1,0,0,1,0,0)"><svg width="395.52" viewBox="3 -38.11 122.48 38.82" height="125.34917281243771" data-palette-color="#000000"><path d="M3-8.25L4.25-8.25 6.86-2.71Q7.18-2.51 7.64-2.36 8.11-2.2 8.64-2.08 9.18-1.95 9.74-1.88 10.3-1.81 10.84-1.81L10.84-1.81Q12.08-1.81 13.1-2.06 14.11-2.32 14.84-2.8 15.58-3.27 15.97-3.97 16.36-4.66 16.36-5.54L16.36-5.54Q16.36-6.69 15.42-7.73 14.48-8.76 12.77-9.74L12.77-9.74 10.16-11.21Q8.76-11.94 7.56-12.72 6.35-13.5 5.44-14.43 4.54-15.36 4.02-16.48 3.49-17.6 3.49-18.99L3.49-18.99Q3.49-20.68 4.15-21.92 4.81-23.17 6.03-23.99 7.25-24.8 8.97-25.21 10.69-25.61 12.79-25.61L12.79-25.61Q16.02-25.61 19.24-24.56L19.24-24.56 19.14-17.5 18.14-17.5 15.55-23.24Q14.62-23.36 13.95-23.44 13.28-23.51 12.84-23.51L12.84-23.51Q11.52-23.51 10.56-23.21 9.59-22.9 8.97-22.4 8.35-21.9 8.04-21.26 7.74-20.63 7.74-19.95L7.74-19.95Q7.74-19.14 8.04-18.49 8.35-17.85 8.95-17.26 9.55-16.67 10.45-16.1 11.35-15.53 12.55-14.89L12.55-14.89Q14.26-13.96 15.37-13.38 16.48-12.79 16.97-12.45L16.97-12.45Q20.8-9.89 20.8-6.54L20.8-6.54Q20.8-4.74 19.93-3.38 19.07-2.03 17.66-1.11 16.26-0.2 14.5 0.26 12.74 0.71 10.96 0.71L10.96 0.71Q10.03 0.71 8.96 0.59 7.89 0.46 6.81 0.24 5.74 0.02 4.75-0.28 3.76-0.59 3-0.95L3-0.95 3-8.25ZM28.54-21.09L24.05-22.85 24.05-23.85 32.54-25.61 33.03-25.1 33.03-8.84Q33.03-5.35 34.25-3.97 35.47-2.59 38.33-2.59L38.33-2.59Q41.7-2.59 44.24-4.71L44.24-4.71 44.24-21.09 39.74-22.85 39.74-23.85 48.24-25.61 48.73-25.1 48.73-3.39 53.24-2.15 53.24-1.25 44.75 0.61 44.24 0.1 44.24-2.81Q42.55-1.2 40.33-0.29 38.11 0.61 35.89 0.61L35.89 0.61Q34.42 0.61 33.13 0.15 31.83-0.32 30.8-1.26 29.76-2.2 29.15-3.76 28.54-5.32 28.54-7.35L28.54-7.35 28.54-21.09ZM57.73-8.25L58.98-8.25 61.59-2.71Q61.91-2.51 62.37-2.36 62.84-2.2 63.37-2.08 63.91-1.95 64.47-1.88 65.03-1.81 65.57-1.81L65.57-1.81Q66.82-1.81 67.83-2.06 68.84-2.32 69.58-2.8 70.31-3.27 70.7-3.97 71.09-4.66 71.09-5.54L71.09-5.54Q71.09-6.69 70.15-7.73 69.21-8.76 67.5-9.74L67.5-9.74 64.89-11.21Q63.5-11.94 62.29-12.72 61.08-13.5 60.18-14.43 59.27-15.36 58.75-16.48 58.22-17.6 58.22-18.99L58.22-18.99Q58.22-20.68 58.88-21.92 59.54-23.17 60.76-23.99 61.98-24.8 63.7-25.21 65.42-25.61 67.52-25.61L67.52-25.61Q70.75-25.61 73.97-24.56L73.97-24.56 73.87-17.5 72.87-17.5 70.28-23.24Q69.36-23.36 68.68-23.44 68.01-23.51 67.57-23.51L67.57-23.51Q66.25-23.51 65.29-23.21 64.33-22.9 63.7-22.4 63.08-21.9 62.78-21.26 62.47-20.63 62.47-19.95L62.47-19.95Q62.47-19.14 62.78-18.49 63.08-17.85 63.68-17.26 64.28-16.67 65.18-16.1 66.08-15.53 67.28-14.89L67.28-14.89Q68.99-13.96 70.1-13.38 71.21-12.79 71.7-12.45L71.7-12.45Q75.53-9.89 75.53-6.54L75.53-6.54Q75.53-4.74 74.67-3.38 73.8-2.03 72.39-1.11 70.99-0.2 69.23 0.26 67.48 0.71 65.69 0.71L65.69 0.71Q64.77 0.71 63.69 0.59 62.62 0.46 61.54 0.24 60.47 0.02 59.48-0.28 58.49-0.59 57.73-0.95L57.73-0.95 57.73-8.25ZM88.52-2.76L92.77-1 92.77 0 79.51 0 79.51-1 84.03-2.76 84.03-33.59 79.51-35.35 79.51-36.35 88.03-38.11 88.52-37.6 88.52-22.14Q90.23-23.75 92.55-24.68 94.87-25.61 97.11-25.61L97.11-25.61Q100.41-25.61 102.57-23.61 104.73-21.61 104.73-17.65L104.73-17.65 104.73-2.76 109.22-1 109.22 0 95.96 0 95.96-1 100.21-2.76 100.21-16.16Q100.21-19.68 98.97-21.04 97.72-22.41 94.67-22.41L94.67-22.41Q91.03-22.41 88.52-20.24L88.52-20.24 88.52-2.76ZM120.99-2.76L125.48-1 125.48 0 111.98 0 111.98-1 116.47-2.76 116.47-21.09 111.98-22.85 111.98-23.85 120.47-25.61 120.99-25.1 120.99-2.76ZM114.83-32.96L114.83-32.96Q114.83-34.23 115.72-35.12 116.62-36.01 117.93-36.01L117.93-36.01Q119.2-36.01 120.09-35.12 120.99-34.23 120.99-32.96L120.99-32.96Q120.99-31.64 120.09-30.75 119.2-29.86 117.93-29.86L117.93-29.86Q116.62-29.86 115.72-30.75 114.83-31.64 114.83-32.96Z" opacity="1" transform="matrix(1,0,0,1,0,0)" fill="#ffffff" class="wordmark-text-0" data-fill-palette-color="primary" id="text-0"></path></svg></g></svg></g></svg></g></svg></g><g transform="matrix(1,0,0,1,86.90512431968143,0)"><svg viewBox="0 0 221.7097513606371 173.23255682678894" height="173.23255682678894" width="221.7097513606371"><g><svg xmlns="http://www.w3.org/2000/svg" xmlns:xlink="http://www.w3.org/1999/xlink" version="1.1" x="8" y="0" viewBox="7.252 14.001 85.49600000000001 71.99799999999999" enable-background="new 0 0 100 100" xml:space="preserve" height="173.23255682678894" width="205.7097513606371" class="icon-icon-0" data-fill-palette-color="accent" id="icon-0"><g fill="#000000" data-fill-palette-color="accent"><path d="M23.751 59C14.451 58.4 7.252 53.3 7.252 47V26.001C7.252 19.401 15.352 14.001 25.251 14.001 32.601 14.001 38.9 17.001 41.75 21.351 44.45 17.001 50.9 14.001 58.25 14.001 68.149 14.001 76.249 19.401 76.249 26.001V41.001C85.398 41.601 92.748 46.701 92.748 53.001V74C92.748 80.6 84.648 85.999 74.749 85.999 67.399 85.999 60.949 82.999 58.25 78.8 55.399 82.999 49.1 85.999 41.75 85.999 31.851 85.999 23.751 80.6 23.751 74zM25.251 35C33.2 35 40.25 30.65 40.25 26S33.501 17 25.251 17 10.252 21.35 10.252 26 17.151 35 25.251 35M40.25 41V32.6C36.95 35.9 31.4 38 25.251 38 18.951 38 13.401 35.9 10.252 32.6V47C10.252 51.35 16.102 55.55 23.751 56V53C23.751 46.7 30.951 41.6 40.25 41M14.751 39.5C13.852 39.5 13.251 40.1 13.251 41S13.852 42.5 14.751 42.5C15.651 42.5 16.251 41.9 16.251 41S15.651 39.5 14.751 39.5M14.751 45.5C13.852 45.5 13.251 46.1 13.251 47S13.852 48.5 14.751 48.5C15.651 48.5 16.251 47.9 16.251 47S15.651 45.5 14.751 45.5M25.251 21.501C30.501 21.501 34.251 23.901 34.251 26.001S30.501 30.501 25.251 30.501 16.251 28.101 16.251 26.001 20.001 21.501 25.251 21.501M19.251 42.5C18.352 42.5 17.751 43.1 17.751 44S18.352 45.5 19.251 45.5C20.151 45.5 20.751 44.9 20.751 44S20.151 42.5 19.251 42.5M41.75 62C49.7 62 56.75 57.65 56.75 53S50 44 41.75 44 26.751 48.35 26.751 53 33.65 62 41.75 62M56.75 59.6C53.45 62.9 47.9 65 41.75 65 35.45 65 29.9 62.899 26.751 59.6V73.999C26.751 78.648 33.501 82.998 41.75 82.998S56.75 78.648 56.75 73.999zM31.251 66.5C30.351 66.5 29.751 67.1 29.751 68 29.751 68.899 30.351 69.499 31.251 69.499 32.15 69.499 32.751 68.899 32.751 68S32.15 66.5 31.251 66.5M31.251 72.499C30.351 72.499 29.751 73.1 29.751 73.999S30.351 75.499 31.251 75.499C32.15 75.499 32.751 74.898 32.751 73.999S32.15 72.499 31.251 72.499M41.75 48.5C47 48.5 50.75 50.9 50.75 53S47 57.5 41.75 57.5C36.501 57.5 32.751 55.1 32.751 53S36.501 48.5 41.75 48.5M35.751 69.499C34.851 69.499 34.251 70.1 34.251 70.999S34.851 72.499 35.751 72.499C36.65 72.499 37.25 71.898 37.25 70.999S36.65 69.499 35.751 69.499M58.25 35C66.199 35 73.249 30.65 73.249 26S66.499 17 58.25 17 43.25 21.35 43.25 26 50.15 35 58.25 35M58.25 48.2C60.8 44.15 66.799 41.45 73.249 41V32.6C69.949 35.9 64.399 38 58.25 38 51.95 38 46.4 35.9 43.25 32.6V41C50 41.45 55.7 44.3 58.25 48.2M58.25 21.501C63.499 21.501 67.249 23.901 67.249 26.001S63.499 30.501 58.25 30.501 49.25 28.101 49.25 26.001 53 21.501 58.25 21.501M74.749 62C82.698 62 89.748 57.65 89.748 53S82.999 44 74.749 44 59.75 48.35 59.75 53 66.649 62 74.749 62M89.748 59.6C86.448 62.9 80.898 65 74.749 65 68.449 65 62.899 62.899 59.75 59.6V73.999C59.75 78.648 66.499 82.998 74.749 82.998S89.748 78.648 89.748 73.999zM64.249 66.5C63.35 66.5 62.749 67.1 62.749 68 62.749 68.899 63.35 69.499 64.249 69.499 65.149 69.499 65.749 68.899 65.749 68S65.149 66.5 64.249 66.5M64.249 72.499C63.35 72.499 62.749 73.1 62.749 73.999S63.35 75.499 64.249 75.499C65.149 75.499 65.749 74.898 65.749 73.999S65.149 72.499 64.249 72.499M74.749 48.5C79.999 48.5 83.749 50.9 83.749 53S79.999 57.5 74.749 57.5 65.749 55.1 65.749 53 69.499 48.5 74.749 48.5M68.749 69.499C67.85 69.499 67.249 70.1 67.249 70.999S67.85 72.499 68.749 72.499C69.649 72.499 70.249 71.898 70.249 70.999S69.649 69.499 68.749 69.499" fill="#ffffff" data-fill-palette-color="accent"></path></g></svg></g></svg></g><g><rect width="38.10976656726366" height="11.304117764571977" y="160.92843906221697" x="308.61487568031856" fill="#ffffff" data-fill-palette-color="accent"></rect><rect width="38.10976656726366" height="11.304117764571977" y="160.92843906221697" x="48.79535775241777" fill="#ffffff" data-fill-palette-color="accent"></rect><rect width="38.10976656726366" height="11.304117764571977" y="138.320203533073" x="308.61487568031856" fill="#ffffff" data-fill-palette-color="accent"></rect><rect width="38.10976656726366" height="11.304117764571977" y="138.320203533073" x="48.79535775241777" fill="#ffffff" data-fill-palette-color="accent"></rect></g></svg></g><defs></defs></svg><rect width="297.92928449516444" height="247.2" fill="none" stroke="none" visibility="hidden"></rect></g></svg></g></svg>